<?xml version="1.0" encoding="utf-8"?>
<!-- Generator: Adobe Illustrator 22.0.1, SVG Export Plug-In . SVG Version: 6.00 Build 0)  -->
<svg version="1.1" id="Layer_1" xmlns="http://www.w3.org/2000/svg" xmlns:xlink="http://www.w3.org/1999/xlink" x="0px" y="0px"
	 width="1185.4px" height="260.3px" viewBox="0 0 1185.4 260.3" style="enable-background:new 0 0 1185.4 260.3;"
	 xml:space="preserve">
<style type="text/css">
	.st0{fill:#ffffff;}
	.st1{fill:#ffffff;}
</style>
<title>alt-colours</title>
<path class="st0" d="M399.7,119.2v26.4h-63.9v16.1c0.1,2.7,2.2,4.8,4.9,4.9h59v10.3h-59c-8.4,0-15.2-6.8-15.2-15.2c0,0,0,0,0,0
	v-42.5c0-8.4,6.8-15.2,15.2-15.2c0,0,0,0,0,0h43.7C392.8,103.9,399.6,110.7,399.7,119.2C399.7,119.1,399.7,119.1,399.7,119.2z
	 M389.2,135.3v-16.1c0-2.7-2.2-4.9-4.9-4.9h-43.7c-2.7,0.1-4.8,2.2-4.9,4.9v16.1H389.2z"/>
<path class="st0" d="M420.2,80.2v81.5c0.1,2.7,2.2,4.8,4.9,4.9h12.3v10.3h-12.3c-8.4,0-15.2-6.8-15.2-15.2c0,0,0,0,0,0V80.2H420.2z"
	/>
<path class="st0" d="M520,119.2v26.4h-63.9v16.1c0.1,2.7,2.2,4.8,4.9,4.9h59v10.3h-59c-8.4,0-15.2-6.8-15.2-15.2c0,0,0,0,0,0v-42.5
	c0-8.4,6.8-15.2,15.2-15.2c0,0,0,0,0,0h43.7C513.1,103.9,520,110.7,520,119.2C520,119.1,520,119.1,520,119.2z M509.7,135.3v-16.1
	c0-2.7-2.2-4.9-4.9-4.9h-43.7c-2.7,0.1-4.8,2.2-4.9,4.9v16.1H509.7z"/>
<path class="st0" d="M604.4,166.6v10.3h-59c-8.4,0-15.2-6.8-15.2-15.2c0,0,0,0,0,0v-42.5c0-8.4,6.8-15.2,15.2-15.2c0,0,0,0,0,0h58.8
	v10.3h-58.8c-2.7,0.1-4.8,2.2-4.9,4.9v42.5c0.1,2.7,2.2,4.8,4.9,4.9L604.4,166.6z"/>
<path class="st0" d="M624.9,114.3v47.3c0.1,2.7,2.2,4.8,4.9,4.9h26.6v10.3h-26.6c-8.4,0-15.1-6.8-15.2-15.1c0,0,0-0.1,0-0.1V80.1
	H625V104h31.5v10.3L624.9,114.3z"/>
<path class="st0" d="M722.1,104v10.3h-40.9c-2.7,0.1-4.8,2.2-4.9,4.9v57.6H666v-57.6c0-8.4,6.8-15.2,15.2-15.2c0,0,0,0,0,0H722.1z"
	/>
<path class="st0" d="M788.4,104c8.4,0,15.3,6.7,15.3,15.1c0,0,0,0,0,0.1v42.5c0,8.4-6.8,15.2-15.2,15.2c0,0,0,0-0.1,0h-43.7
	c-8.4,0-15.2-6.8-15.2-15.2c0,0,0,0,0,0v-42.5c0-8.4,6.8-15.2,15.2-15.2c0,0,0,0,0,0H788.4z M744.7,114.3c-2.7,0.1-4.8,2.2-4.9,4.9
	v42.5c0.1,2.7,2.2,4.8,4.9,4.9h43.7c2.7,0,4.9-2.2,4.9-4.9v-42.5c0-2.7-2.2-4.9-4.9-4.9L744.7,114.3z"/>
<path class="st0" d="M889.1,119.2v57.6h-10.3v-57.6c-0.1-2.7-2.2-4.8-4.9-4.9h-43.7c-2.7,0-4.9,2.2-5,4.9v57.6h-10.3V104h59
	c8.4,0,15.2,6.7,15.2,15.1C889.1,119.1,889.1,119.1,889.1,119.2z"/>
<path class="st0" d="M976.2,119.2v26.4h-63.9v16.1c0.1,2.7,2.2,4.8,4.9,4.9h59v10.3h-59c-8.4,0-15.2-6.8-15.2-15.2c0,0,0,0,0,0
	v-42.5c0-8.4,6.8-15.2,15.2-15.2c0,0,0,0,0,0h43.7C969.3,103.9,976.2,110.7,976.2,119.2C976.2,119.1,976.2,119.1,976.2,119.2z
	 M965.8,135.3v-16.1c0-2.7-2.2-4.9-4.9-4.9h-43.7c-2.7,0.1-4.8,2.2-4.9,4.9v16.1H965.8z"/>
<path class="st0" d="M1063.3,104v57.6c0,8.4-6.8,15.2-15.2,15.2c0,0,0,0-0.1,0h-43.7c-8.4,0-15.2-6.8-15.2-15.2c0,0,0,0,0,0V104
	h10.3v57.6c0.1,2.7,2.2,4.8,4.9,4.9h43.7c2.7,0,4.9-2.2,5-4.9V104H1063.3z"/>
<path class="st0" d="M1185.4,119.2v57.6h-10.2v-57.6c-0.1-2.7-2.3-4.9-5-4.9h-30.3c-2.7,0-4.9,2.2-4.9,4.9v57.6h-10.3v-57.6
	c-0.1-2.7-2.2-4.8-4.9-4.9h-30.4c-2.7,0.1-4.8,2.2-4.9,4.9v57.6h-10.4V104h96.2c8.3,0,15.1,6.7,15.2,15
	C1185.4,119,1185.4,119.1,1185.4,119.2z"/>
<path class="st0" d="M175.9,100.3l21.6,16.4l13.7,10.3l-15.2,7.8l-30.7,15.7l10.5,7.3l14.7,10.2l-15.9,8.2l-97.5,50.3
	c53.1,29.2,119.9,9.9,149.1-43.3c21.8-39.6,17.1-88.5-11.9-123.2L175.9,100.3z"/>
<path class="st0" d="M84.1,165.8l-21.6-16.4l-13.7-10.3l15.2-7.8l30.7-15.7l-10.5-7.3L69.5,98.1l15.9-8.2l102.7-53
	C136.7,4.8,68.9,20.5,36.9,71.9C11,113.4,15.7,167,48.3,203.4L84.1,165.8z"/>
<path class="st0" d="M41.7,210.6C-2.8,161.8,0.8,86.2,49.5,41.8C90.7,4.3,152.3,0.2,198.1,32l10.7-5.5C151.5-17,69.9-5.8,26.4,51.5
	c-38.1,50.2-34.7,120.5,8,166.9L41.7,210.6z"/>
<path class="st0" d="M221,52.8c42.8,50.2,36.8,125.6-13.4,168.4c-39.6,33.7-96.5,38-140.7,10.4L56,237.2
	c59.1,40.9,140.1,26.2,181.1-32.9c33.8-48.8,30.3-114.4-8.7-159.3L221,52.8z"/>
<polygon class="st1" points="68.9,140.9 100.1,164.5 29.6,238.8 169.7,166.5 144.4,149.1 191.1,125.2 159.8,101.6 230.3,27.4 
	90.3,99.6 115.6,117.1 "/>
</svg>
